<?xml version="1.0" ?>
<svg xmlns="http://www.w3.org/2000/svg" width="600" height="600" viewBox="0 0 600 600" style="background:none">
  <circle cx="300.0" cy="300.0" r="262.5" fill="transparent" stroke-width="25" stroke="rgb(25,25,25)"/>
  <circle cx="300.0" cy="300.0" r="250" fill="rgb(0, 0, 0)"/>
  <circle cx="32.5%" cy="50%" r="10" fill="rgb(75, 75, 75)"/>
  <circle cx="67.5%" cy="50%" r="10" fill="rgb(75, 75, 75)"/>
  <g stroke="rgb(255, 255, 255)" fill="none">
    <line x1="85.0" y1="300.0" x2="50.0" y2="299.99999999999994" stroke-width="5"/>
    <line x1="86.69533921738724" y1="273.05335478367465" x2="51.97132467138053" y2="268.666691608924" stroke-width="5"/>
    <line x1="91.75462035734432" y1="246.5316742595562" x2="57.854209717842224" y2="237.8275282087863" stroke-width="5"/>
    <line x1="100.098055534026" y1="220.85322117279412" x2="67.55587852793721" y2="207.96886182883037" stroke-width="5"/>
    <line x1="111.59406379056938" y1="196.42296006813115" x2="80.92332998903416" y2="179.56158147457108" stroke-width="5"/>
    <line x1="126.06134620938633" y1="173.62617075711825" x2="97.74575140626317" y2="153.05368692688168" stroke-width="5"/>
    <line x1="143.27174510439656" y1="152.8223722253319" x2="117.75784314464715" y2="128.86322351782778" stroke-width="5"/>
    <line x1="162.9538422040318" y1="134.33965280320527" x2="140.64400256282764" y2="107.37168930605264" stroke-width="5"/>
    <line x1="184.79723907951583" y1="118.46949601706669" x2="166.04330125525098" y2="88.91801862449614" stroke-width="5"/>
    <line x1="208.45745231350946" y1="105.46218371980578" x2="193.55517710873193" y2="73.79323688349507" stroke-width="5"/>
    <line x1="233.5613462093864" y1="95.52284899654194" x2="222.74575140626325" y2="62.23587092621156" stroke-width="5"/>
    <line x1="259.7130173640693" y1="88.80824109333193" x2="253.15467135356892" y2="54.42818731782782" stroke-width="5"/>
    <line x1="286.5000383011977" y1="85.42425338792162" x2="284.3023701176718" y2="50.49331789293211" stroke-width="5"/>
    <line x1="313.49996169880245" y1="85.42425338792162" x2="315.69762988232844" y2="50.49331789293211" stroke-width="5"/>
    <line x1="340.28698263593094" y1="88.80824109333196" x2="346.8453286464313" y2="54.42818731782785" stroke-width="5"/>
    <line x1="366.4386537906138" y1="95.52284899654202" x2="377.254248593737" y2="62.235870926211646" stroke-width="5"/>
    <line x1="391.54254768649065" y1="105.46218371980581" x2="406.4448228912682" y2="73.79323688349513" stroke-width="5"/>
    <line x1="415.20276092048437" y1="118.4694960170668" x2="433.95669874474925" y2="88.91801862449628" stroke-width="5"/>
    <line x1="437.0461577959684" y1="134.33965280320538" x2="459.3559974371725" y2="107.37168930605276" stroke-width="5"/>
    <line x1="456.7282548956035" y1="152.822372225332" x2="482.24215685535296" y2="128.8632235178279" stroke-width="5"/>
    <line x1="473.9386537906138" y1="173.62617075711836" x2="502.2542485937369" y2="153.0536869268818" stroke-width="5"/>
    <line x1="488.4059362094307" y1="196.42296006813132" x2="519.0766700109659" y2="179.5615814745713" stroke-width="5"/>
    <line x1="499.9019444659741" y1="220.85322117279435" x2="532.4441214720629" y2="207.96886182883065" stroke-width="5"/>
    <line x1="508.24537964265573" y1="246.53167425955635" x2="542.1457902821578" y2="237.82752820878648" stroke-width="5"/>
    <line x1="513.3046607826127" y1="273.05335478367476" x2="548.0286753286194" y2="268.6666916089241" stroke-width="5"/>
  </g>
  <g stroke="rgb(255, 255, 255)" fill="none">
    <line x1="100.0" y1="300.0" x2="50.0" y2="299.99999999999994" stroke-width="10"/>
    <line x1="138.19660112501055" y1="182.44294954150536" x2="97.74575140626317" y2="153.05368692688168" stroke-width="10"/>
    <line x1="238.19660112501055" y1="109.78869674096927" x2="222.74575140626317" y2="62.23587092621159" stroke-width="10"/>
    <line x1="361.8033988749895" y1="109.7886967409693" x2="377.25424859373686" y2="62.23587092621162" stroke-width="10"/>
    <line x1="461.8033988749895" y1="182.44294954150536" x2="502.25424859373686" y2="153.0536869268817" stroke-width="10"/>
    <line x1="500.0" y1="300.0" x2="550.0" y2="300.0" stroke-width="10"/>
  </g>
  <g font-family="Gordon" fill="rgb(255, 255, 255)" text-anchor="middle" dominant-baseline="middle">
    <text x="140.0" y="300.0" font-size="48.0" text-anchor="middle" dominant-baseline="middle" dy="0.35em">10</text>
    <text x="170.55728090000844" y="205.95435963320426" font-size="48.0" text-anchor="middle" dominant-baseline="middle" dy="0.35em">15</text>
    <text x="250.55728090000844" y="147.83095739277542" font-size="48.0" text-anchor="middle" dominant-baseline="middle" dy="0.35em">20</text>
    <text x="349.44271909999156" y="147.83095739277545" font-size="48.0" text-anchor="middle" dominant-baseline="middle" dy="0.35em">25</text>
    <text x="429.44271909999156" y="205.9543596332043" font-size="48.0" text-anchor="middle" dominant-baseline="middle" dy="0.35em">30</text>
    <text x="460.0" y="300.0" font-size="48.0" text-anchor="middle" dominant-baseline="middle" dy="0.35em">35</text>
  </g>
  <text x="50%" y="70%" fill="rgb(255,255,255)" font-family="Gordon" font-size="32" text-anchor="middle" dominant-baseline="middle" dy="0.35em">MANIFOLD</text>
  <text x="50%" y="75%" fill="rgb(255,255,255)" font-family="Gordon" font-size="32" text-anchor="middle" dominant-baseline="middle" dy="0.35em">PRESSURE</text>
  <text x="50%" y="80%" fill="rgb(255,255,255)" font-family="Gordon" font-size="32" text-anchor="middle" dominant-baseline="middle" dy="0.35em">IN HG ABS</text>
</svg>
