<?xml version="1.0" encoding="utf-8" standalone="yes"?>
<svg width="600" height="600" viewBox="0 0 600 600" style="background:none" xmlns="http://www.w3.org/2000/svg">
  <circle cx="300" cy="300" r="262.5" fill="rgb(255,255,255)" stroke-width="25" stroke="rgb(25,25,25)" />
  <circle cx="300" cy="300" r="250" fill="rgb(16, 16, 16)" />
  <path d="M 95.211988927752,443.3941090877614 A 250,250 0 1 1 549.0486745229364,321.78893568691456 L 509.2008865992666,318.3027059770082 A 210,210 0 1 0 127.97807069931167,420.45105163371966 Z" fill="rgb(74, 160, 65)" />
  <g stroke="rgb(255, 255, 255)" fill="none">
    <line x1="123.88231047786672" y1="423.31893381547485" x2="95.211988927752" y2="443.3941090877614" stroke-width="5" />
    <line x1="105.14382578712025" y1="390.86292627425036" x2="73.42305324083748" y2="405.65456543517485" stroke-width="5" />
    <line x1="92.3259473478503" y1="355.64609469704186" x2="58.51854342773291" y2="364.70476127563006" stroke-width="5" />
    <line x1="85.81813991027471" y1="318.7384846907465" x2="50.95132547706362" y2="321.7889356869145" stroke-width="5" />
    <line x1="85.81813991027471" y1="281.2615153092534" x2="50.95132547706362" y2="278.21106431308533" stroke-width="5" />
    <line x1="92.32594734785033" y1="244.35390530295797" x2="58.518543427732936" y2="235.29523872436974" stroke-width="5" />
    <line x1="105.14382578712025" y1="209.1370737257496" x2="73.4230532408375" y2="194.34543456482513" stroke-width="5" />
    <line x1="123.88231047786678" y1="176.68106618452504" x2="95.21198892775209" y2="156.6058909122384" stroke-width="5" />
    <line x1="147.9720420448923" y1="147.97204204489228" x2="123.22330470336314" y2="123.22330470336311" stroke-width="5" />
    <line x1="176.68106618452515" y1="123.88231047786672" x2="156.60589091223855" y2="95.211988927752" stroke-width="5" />
    <line x1="209.13707372574964" y1="105.14382578712025" x2="194.34543456482515" y2="73.42305324083748" stroke-width="5" />
    <line x1="244.35390530295803" y1="92.3259473478503" x2="235.29523872436977" y2="58.51854342773291" stroke-width="5" />
    <line x1="281.26151530925347" y1="85.81813991027471" x2="278.21106431308544" y2="50.95132547706362" stroke-width="5" />
    <line x1="318.7384846907465" y1="85.81813991027471" x2="321.78893568691456" y2="50.95132547706362" stroke-width="5" />
    <line x1="355.646094697042" y1="92.3259473478503" x2="364.7047612756302" y2="58.51854342773291" stroke-width="5" />
    <line x1="390.8629262742504" y1="105.14382578712025" x2="405.65456543517485" y2="73.4230532408375" stroke-width="5" />
    <line x1="423.3189338154749" y1="123.88231047786675" x2="443.39410908776154" y2="95.21198892775206" stroke-width="5" />
    <line x1="452.0279579551077" y1="147.9720420448923" x2="476.7766952966369" y2="123.22330470336314" stroke-width="5" />
    <line x1="476.1176895221332" y1="176.6810661845251" x2="504.78801107224797" y2="156.6058909122385" stroke-width="5" />
    <line x1="494.85617421287975" y1="209.13707372574962" x2="526.5769467591625" y2="194.34543456482515" stroke-width="5" />
    <line x1="507.6740526521497" y1="244.35390530295803" x2="541.4814565722671" y2="235.29523872436982" stroke-width="5" />
    <line x1="514.1818600897253" y1="281.26151530925347" x2="549.0486745229364" y2="278.21106431308544" stroke-width="5" />
    <line x1="514.1818600897253" y1="318.73848469074653" x2="549.0486745229364" y2="321.78893568691456" stroke-width="5" />
    <line x1="507.6740526521497" y1="355.646094697042" x2="541.4814565722671" y2="364.7047612756302" stroke-width="5" />
    <line x1="494.85617421287975" y1="390.8629262742504" x2="526.5769467591625" y2="405.65456543517485" stroke-width="5" />
    <line x1="476.1176895221332" y1="423.3189338154749" x2="504.78801107224797" y2="443.39410908776154" stroke-width="5" />
  </g>
  <g stroke="rgb(255, 255, 255)" fill="none">
    <line x1="132.07383092075665" y1="417.5831694519644" x2="95.211988927752" y2="443.3941090877614" stroke-width="10" />
    <line x1="101.98520561074102" y1="246.94209575398318" x2="58.518543427732936" y2="235.29523872436974" stroke-width="10" />
    <line x1="213.36325634315665" y1="114.20690365748675" x2="194.34543456482515" y2="73.42305324083748" stroke-width="10" />
    <line x1="386.63674365684335" y1="114.20690365748678" x2="405.65456543517485" y2="73.4230532408375" stroke-width="10" />
    <line x1="498.014794389259" y1="246.94209575398324" x2="541.4814565722671" y2="235.29523872436982" stroke-width="10" />
    <line x1="467.9261690792433" y1="417.5831694519644" x2="504.78801107224797" y2="443.39410908776154" stroke-width="10" />
  </g>
  <g stroke="rgb(230, 66, 84)" fill="none">
    <line x1="504.05622066527167" y1="319.6483792666459" x2="548.8490495917947" y2="323.96143813005597" stroke-width="6" />
  </g>
  <g font-family="Gordon" fill="rgb(255, 255, 255)" text-anchor="middle" dominant-baseline="middle">
    <text x="164.83991269231632" y="394.64011199792253" font-size="64" text-anchor="middle" dominant-baseline="middle" dy="0.35em">5</text>
    <text x="140.62223866230374" y="257.294857558084" font-size="64" text-anchor="middle" dominant-baseline="middle" dy="0.35em">10</text>
    <text x="230.2679868127846" y="150.45921513895274" font-size="64" text-anchor="middle" dominant-baseline="middle" dy="0.35em">15</text>
    <text x="369.7320131872154" y="150.45921513895277" font-size="64" text-anchor="middle" dominant-baseline="middle" dy="0.35em">20</text>
    <text x="459.37776133769626" y="257.29485755808406" font-size="64" text-anchor="middle" dominant-baseline="middle" dy="0.35em">25</text>
    <text x="435.1600873076836" y="394.6401119979226" font-size="64" text-anchor="middle" dominant-baseline="middle" dy="0.35em">30</text>
  </g>
  <circle cx="300" cy="300" r="5" fill="rgb(255, 255, 255)" />
  <text x="300" y="480" fill="rgb(255, 255, 255)" font-family="Gordon" font-size="64" text-anchor="middle" dominant-baseline="middle" dy="0.35em">RPM</text>
</svg>